<?xml version="1.0" encoding="utf-8"?>
<!-- Generator: Adobe Illustrator 24.1.2, SVG Export Plug-In . SVG Version: 6.00 Build 0)  -->
<svg version="1.1" id="Layer_1" xmlns="http://www.w3.org/2000/svg" xmlns:xlink="http://www.w3.org/1999/xlink" x="0px" y="0px"
	 viewBox="0 0 48 48" style="enable-background:new 0 0 48 48;" xml:space="preserve">
<style type="text/css">
	.st0{fill:#008AE6;}
</style>
<path class="st0" d="M36.2,20.3c0,2.2-1.7,3.7-4.4,3.7h-2.6v-7.1c0.4-0.1,1.3-0.2,2.5-0.2C34.4,16.7,36.2,17.8,36.2,20.3z"/>
<path class="st0" d="M24.2,2.7C12.4,2.7,2.9,12.3,2.9,24s9.5,21.3,21.2,21.3S45.4,35.7,45.4,24S35.9,2.7,24.2,2.7z M17.6,34.4h-2.8
	L8.4,14.9h2.7l3,9.6c0.8,2.6,1.6,5,2.1,7.3h0.1c0.5-2.3,1.4-4.7,2.2-7.3l3.3-9.7h2.7L17.6,34.4z M36.8,34.4
	c-0.3-0.5-0.8-2.2-1.3-4.7c-0.6-2.7-1.6-3.7-3.9-3.8h-2.4v8.5h-2.5V15.1c1.3-0.3,3.1-0.4,4.8-0.4c2.7,0,4.4,0.5,5.7,1.6
	c1,0.9,1.5,2.2,1.5,3.7c0,2.6-1.6,4.3-3.7,5v0.1c1.5,0.5,2.4,1.9,2.9,3.9c0.6,2.7,1.1,4.6,1.5,5.4H36.8z"/>
</svg>
